<svg id="Layer_1" data-name="Layer 1" xmlns="http://www.w3.org/2000/svg" viewBox="0 0 1080 1080"><defs><style>.cls-1{fill:#fff;}</style></defs><rect width="1080" height="1080"/><path class="cls-1" d="M199.55,421.66c.11,2-.92,3.28-1.63,4.66q-6,11.46-12,22.88c-2.31,4.37-4.72,8.68-7,13.06a3.89,3.89,0,0,1-3.78,2.4c-1.28,0-2.56,0-3.84,0H129.08a35.17,35.17,0,0,0-9,.91c-8.33,2.17-16,5.4-21.77,12.07a43,43,0,0,0-8.5,15.89,10.42,10.42,0,0,0-.2,2.86c0,2.88.14,5.77-.05,8.64-.32,4.89,1.6,9.06,3.93,13.08,2.6,4.48,6.57,7.77,10.18,11.38,5.89,3.1,11.47,7.07,18.64,6.54a21.29,21.29,0,0,1,2.88,0c7,.4,13.41-1.79,19.73-4.7,6.73-3.1,12.47-7.66,18.43-11.86,4-2.82,7.42-6.49,11.1-9.77.95-.85,1.91-1.69,2.89-2.5,1.22-1,2.54-1.91,3.68-3,2.54-2.44,4.95-5,7.49-7.44,2.17-2.09,4-4.54,6.87-5.9a9.17,9.17,0,0,0,2.09-2c2.72-2.71,5.41-5.45,8.15-8.13,2-2,3.89-4.2,6.5-5.6a14.56,14.56,0,0,0,2.8-2.6c1.95-1.88,3.66-4,6.18-5.24a5.94,5.94,0,0,0,1.75-1.61c2.5-3,5.82-5,8.78-7.35,4-3.18,8-6.2,12.21-9.1,3.52-2.45,7.25-4.61,10.87-6.92A114,114,0,0,1,270.3,434c8.88-3.87,17.75-7.8,27.37-9.6,4.19-.78,8.27-2.25,12.61-2.16,7.23-1.92,14.61-.7,21.92-1,1.44-.06,2.88,0,4.32,0a63.09,63.09,0,0,1,16,1.94c2.6.58,5.35.57,8,1.32,7.92,2.28,16.05,3.89,23.61,7.33a34.19,34.19,0,0,0,5,1.65,3.34,3.34,0,0,1,2.73,3.44q0,1.2,0,2.4,0,17.52,0,35c0,1.41-.16,2.81-.22,4-1.81,1.38-3.2.5-4.28-.27a44.11,44.11,0,0,0-8.07-4,92.88,92.88,0,0,0-23.59-7.08c-3.52-1.79-7.58-.65-11.19-2.06a8.47,8.47,0,0,0-2.86-.12c-3.2,0-6.4,0-9.59,0-5.43-.09-10.68.9-16,1.95a89.81,89.81,0,0,0-13.78,3.63c-3.42,1.26-6.81,2.65-10.14,4.15a140.86,140.86,0,0,0-25.44,15.05c-3.83,2.81-8,5.19-11.47,8.53-3,2.84-6.53,5-9.68,7.69-3.77,3.18-7.39,6.54-11.05,9.85a44.05,44.05,0,0,1-5.09,4.31c-2.09,1.39-3.74,3.46-5.58,5.23s-3.42,3.83-5.84,4.9a1.48,1.48,0,0,0-.38.29c-3.57,3.17-7.24,6.23-10.68,9.54-3.79,3.65-8.18,6.58-12,10.11-3.44,3.15-7.38,5.53-11.05,8.31-4.42,3.35-9.28,6.13-14,9.13-1.47.94-3,1.83-4.49,2.7a22.87,22.87,0,0,1-2.55,1.33c-4.11,1.72-8.25,3.37-12.35,5.09a71.8,71.8,0,0,1-11.43,3.2c-7.58,1.82-15.25.85-22.87,1-2.65,0-5.32-.76-8-1.25a73.82,73.82,0,0,1-21-7.65,112.57,112.57,0,0,1-11.56-7.57c-4.91-3.42-8.87-7.8-12.92-12.06a49,49,0,0,1-8.56-12c-2.39-4.86-4.75-9.75-6.69-14.8A57.66,57.66,0,0,1,45,515.14a78.67,78.67,0,0,1-1.16-9.42c-.19-3-.1-6.08,0-9.12a30.41,30.41,0,0,1,.6-4.22,78.93,78.93,0,0,1,1.67-8.85c1.35-4.55,2.15-9.29,4.48-13.53.83-1.52,1.14-3.32,1.94-4.85A60.75,60.75,0,0,1,61,452.48c1.59-1.77,2.92-3.77,4.49-5.55a70.84,70.84,0,0,1,14.69-12.11,82.64,82.64,0,0,1,27.07-11.56,65.9,65.9,0,0,1,16.46-2.08c3.52.09,7,0,10.55,0a15.85,15.85,0,0,0,6.13-.76,10.27,10.27,0,0,1,3.78-.34c11.19,0,22.39,0,33.58,0a39.87,39.87,0,0,1,4.7.64,41,41,0,0,0,4.26.43c3.36.07,6.72,0,10.07.05A15.84,15.84,0,0,1,199.55,421.66Z"/><path class="cls-1" d="M73.2,606.08c4.21,1.9,8.33,3.95,12.6,5.63,6,2.39,12.11,4.78,18.59,5.84,2.65.43,5.24,1.2,7.85,1.82a5,5,0,0,0,1.38.33c4.81-.4,9.48,1,14.25,1.12,2.38.06,4.79.29,7.08-.78a3.55,3.55,0,0,1,1.89-.21c5.87.69,11.37-1.26,16.84-2.72a111.51,111.51,0,0,0,30.9-13.6c4.3-2.72,8.66-5.36,12.87-8.21,2.75-1.86,5.29-4,7.93-6.08,2.89-2.22,5.83-4.38,8.66-6.67,3.08-2.51,6.08-5.13,9.07-7.74a47.72,47.72,0,0,1,5.45-4.63c2.1-1.37,3.73-3.47,5.57-5.24s3.39-3.85,5.83-4.9a3,3,0,0,0,.75-.6c4.35-4,8.52-8.17,13.11-11.85,4-3.18,7.61-6.72,11.62-9.85,3.75-2.93,7.55-5.81,11.3-8.75a117,117,0,0,1,18.74-12.24c1.55-.79,2.91-2,4.47-2.75a87.84,87.84,0,0,1,18.23-6.95,69.52,69.52,0,0,1,13.57-2.32c2.31-.1,4.57-1.23,7-1,1.9.14,3.79-.06,5.64.78a9.11,9.11,0,0,0,3.29.39,63.25,63.25,0,0,1,18.54,3.95,75.14,75.14,0,0,1,19.25,10.39c3.33,2.43,6.62,4.92,9.79,7.56,3.45,2.87,5.7,6.82,8.62,10.18a50.16,50.16,0,0,1,6.07,9.11,84.16,84.16,0,0,1,4.94,10.85,78,78,0,0,1,3.4,11.39,65.81,65.81,0,0,1,1.24,21.39c-1,8.17-2.51,16.37-5.84,24s-7.08,15-12.89,21.12c-1.51,1.6-2.65,3.57-4.22,5.1a60.42,60.42,0,0,1-6.2,5.19,106.61,106.61,0,0,1-12.62,8.54c-6.65,3.63-13.78,5.88-20.93,8-3.11.92-6.38,1.95-9.78,1.74a4,4,0,0,0-1.43,0c-4.67,1.59-9.49.92-14.25.94-20.63.07-41.25,0-61.88,0-1.74,0-3.47-.1-5.49-.16a8.81,8.81,0,0,1,.05-2.9,31.85,31.85,0,0,1,3.19-6.43c2.17-3,3.56-6.4,5.27-9.64,4.23-8,8.44-16,12.75-24.21,1.82,0,3.56-.15,5.3-.15h39.81c2.07,0,4.14.18,6.14-.71a4.67,4.67,0,0,1,2.35-.3c4.66.51,8.71-1.57,12.89-3,3-1,5.5-3.17,8.19-4.87,3.57-2.25,5.84-5.75,8.65-8.73a7.89,7.89,0,0,0,1.22-2c2.5-5.21,4.6-10.52,4.09-16.49a25.12,25.12,0,0,1,0-3.36c.3-5.63-1.61-10.54-4.46-15.3a33.86,33.86,0,0,0-15.89-13.94c-2.18-1-4.18-2.2-6.59-2.76a36.35,36.35,0,0,0-15.54-.16c-6.88,1.35-12.91,4.41-18.87,7.72a96.37,96.37,0,0,0-8.69,5.85c-2.32,1.65-4.63,3.35-6.81,5.17-3.3,2.75-6.52,5.6-9.71,8.47-2.36,2.13-4.3,4.71-7.22,6.23a11.64,11.64,0,0,0-2.43,2.29c-4.3,4.29-8.57,8.62-12.9,12.88a53.39,53.39,0,0,1-6.81,6c-2.58,1.81-4.54,4.48-6.93,6.61-4.15,3.69-8.24,7.45-12.72,10.76-2.43,1.79-4.68,3.81-7,5.7-1.61,1.29-3.21,2.59-4.89,3.78-4.8,3.39-9.61,6.77-14.48,10.06a51.62,51.62,0,0,1-8.69,4.85c-2.18.93-4.14,2.35-6.23,3.49-9.83,5.39-20.47,8.64-31.18,11.68-2.28.65-4.69.8-7,1.4-4.62,1.21-9.44.9-14.07,2.09-1.65.43-3.5.11-5.26.12-3.68,0-7.35,0-11,0-2.07,0-4.17.24-6.12-.74a2.46,2.46,0,0,0-.93-.2c-6.36-.35-12.47-2-18.67-3.25a199.85,199.85,0,0,1-21.08-5.72c-2.27-.73-4.52-1.55-6.7-2.49a5.13,5.13,0,0,1-3.32-5.27c.11-5.12,0-10.24,0-15.36,0-7.2,0-14.4,0-21.59C71.71,608.33,71.41,606.75,73.2,606.08Z"/><path class="cls-1" d="M597.45,557.06c-.53-3.9-.88-125.95-.44-133.07a18.69,18.69,0,0,1,.52-2.5c1.34-.11,2.59-.3,3.84-.3,6.08,0,12.15,0,18.23,0a21.13,21.13,0,0,1,2.39.08c1.72.21,2.65,1,2.7,2.79a21.18,21.18,0,0,1-.38,5.69,14.51,14.51,0,0,0,.08,8.46,3.48,3.48,0,0,1,.21,1.87c-1.16,4.44-1.67,9.05-4,13.16-2,3.46-3.58,7.12-5.45,10.9l2.67,2.57c1.82-.72,2.12-2.23,2.74-3.46,4.45-8.85,8.9-17.7,13.28-26.59A32.05,32.05,0,0,1,646,422.94a17.79,17.79,0,0,1,3-1.52A41.69,41.69,0,0,1,668.26,419a37.75,37.75,0,0,1,7.75,2.16,37.31,37.31,0,0,1,3.85,1.92c7.32,3.48,12,9.26,14.63,16.81a47.63,47.63,0,0,1,2.94,17.28c-.24,10.23.14,20.48-.13,30.72A43.7,43.7,0,0,1,690,511.26c-5.66,8.42-13.49,14.12-23.83,16.06a44.65,44.65,0,0,1-16.54.06c-6.73-1.24-13.2-3.35-19.8-5a16.08,16.08,0,0,0-2.75-.7,2.77,2.77,0,0,0-3.26,2.73c.07,4.92-.88,9.9.71,14.76a6.28,6.28,0,0,1,.23,1.89c0,4.48.05,9,0,13.44,0,2.37-1,3.21-3.21,3.17l-19.17-.33C600.81,557.26,599.25,557.15,597.45,557.06Zm27.62-57.64c7.13,3.52,14.73,4.42,22,6.32a4.47,4.47,0,0,0,1.86-.21c.93-.19,1.83-.54,2.76-.64,7.81-.83,12.59-5.45,15.39-12.41a18.24,18.24,0,0,0,1.31-6.5c.15-6.81-1-13.7,1.05-20.41a13.38,13.38,0,0,0,0-1.43c.62-3.74-.84-7.24-1.47-10.79-.56-3.17-2.91-5.37-6.14-6.74-3.54-1.51-6.53-.4-9.54,1.06a5.85,5.85,0,0,0-2.25,2.32c-2.44,4.28-4.83,8.6-7.12,13-2.15,4.09-3.84,8.46-6.27,12.36-4.4,7.06-7.59,14.71-11.41,22.05C625,498,624.87,499.33,625.07,499.42Z"/><path class="cls-1" d="M870.8,524.64c-6.41.55-16.35.42-20.15-.28-.15-.81-.39-1.71-.48-2.62s0-1.92,0-2.88q0-45.83,0-91.66c0-1.73.11-3.46.17-5.32a8.15,8.15,0,0,1,2-.62c7.83,0,15.67,0,23.5,0a7.23,7.23,0,0,1,1.61.43,14,14,0,0,1,.52,2.62c0,8.64.08,17.28,0,25.91,0,3.91-1.82,7.38-3.23,10.91-1.47,3.7-3.16,7.31-4.85,10.92a4.87,4.87,0,0,0-.42,4.14,2.61,2.61,0,0,0,1.66,1.46,2.31,2.31,0,0,0,1.91-1c2.54-5.49,4.94-11,7.43-16.55,1.11-2.47,2.29-4.92,3.51-7.35a164.4,164.4,0,0,0,7.12-15.14,28.56,28.56,0,0,1,10.09-13.12c4.64-3.33,9.82-6,15.93-5.61,1.75.11,3.52-.06,5.27,0a28,28,0,0,1,18.51,7.65c4.55,4.32,7,9.71,8.72,15.61a25.83,25.83,0,0,1,1,7.52v74.44a10,10,0,0,1-2.46.76c-7.67,0-15.35,0-23,0a8.66,8.66,0,0,1-1.84-.42c-.88-1.94-.55-3.88-.55-5.76q0-31.18,0-62.38A13.36,13.36,0,0,0,921,449c-2.55-4.16-8.84-6.49-12.8-1.52-1.86,2.32-3.83,4.72-4.5,7.81a10.44,10.44,0,0,1-.91,2.2c-3.76,7.93-7.63,15.8-11.25,23.78-3.55,7.83-7.39,15.52-10.71,23.46-2,4.71-4.5,9.18-6.8,13.74C873,520.47,871.94,522.44,870.8,524.64Z"/><path class="cls-1" d="M721.22,666.5c-6.85.15-13.34.14-19.7,0a8.11,8.11,0,0,1-.7-1.84q-.06-49.68-.06-99.35a9.29,9.29,0,0,1,.44-1.91,7.43,7.43,0,0,1,1.86-.51q11,0,22.07,0a5.93,5.93,0,0,1,1.67.47c.92,1.65.62,3.29.62,4.86,0,7.2-.22,14.41.09,21.6.24,5.5-1.36,10.31-3.72,15.11-1.81,3.7-3.13,7.64-4.71,11.46a2.07,2.07,0,0,0,.53,2.58,2.43,2.43,0,0,0,3.45-.05,3.91,3.91,0,0,0,.84-1.15q3.63-8.82,7.21-17.65c.06-.15.14-.29.21-.43,3.35-7.06,6.57-14.19,10.09-21.16a32.06,32.06,0,0,1,9.43-11.79c5.12-3.76,10.73-6.19,17.19-6.16,3.81,0,7.58-.18,11.36,1,4.34,1.33,8.38,3,11.6,6.28a37,37,0,0,1,4.21,4.57c2.76,4,3.9,8.49,4.86,13.24,1.45,7.16.74,14.3.94,21.45.09,3.17.33,6.35-.88,9.47-.49,1.27-.2,2.85-.2,4.28q0,19.92,0,39.84c0,1.73.22,3.5-.4,5.15-.57.25-1,.6-1.42.6q-11.26.07-22.54.06a7.53,7.53,0,0,1-1.79-.47c-.86-1.79-.53-3.57-.53-5.29,0-17.92,0-35.84,0-53.76,0-2.38.09-4.71-.85-7.06-.62-1.54-.27-3.47-.34-5.22a8.1,8.1,0,0,0-4.11-7.12c-4.14-2.45-8.78-1.4-11.18,2.77-1.91,3.32-3.52,6.81-5.17,10.28-1.92,4-4,8-5.53,12.18-2.53,6.72-6.54,12.77-8.76,19.62a7.66,7.66,0,0,1-.43.86c-3.56,7.49-7.15,15-10.68,22.47-1.28,2.73-2.4,5.54-3.63,8.3A20.13,20.13,0,0,1,721.22,666.5Z"/><path class="cls-1" d="M599.8,681.47a55.5,55.5,0,0,1,5.74,1.21c4.35,1.38,8.49.72,12.56-1a8.31,8.31,0,0,0,4.78-4.44c1.18-2.76,2.72-5.3,3.43-8.35a9.92,9.92,0,0,0-.72-6.42c-2.68-6.46-5.18-13-7.68-19.51-1.88-4.91-3.26-10-5.3-14.8-2.75-6.45-4.28-13.32-7.25-19.68-.94-2-1.28-4.27-2.1-6.34-3.25-8.13-5.8-16.49-8.66-24.75-1.56-4.5-3.41-8.9-5.24-13.64.7-.32,1.35-.87,2-.87,8.94-.06,17.89,0,26.85,0,1.82,2.51,2.31,5.37,3.23,8,.62,1.79.84,3.71,1.41,5.52,2,6.51,4.27,13,6.23,19.51,2.27,7.6,4.51,15.21,6.42,22.9,1.1,4.44,2.69,8.79,2.84,13.48a29.18,29.18,0,0,0,1.46,6.47,1.33,1.33,0,0,0,1.12.66,2.74,2.74,0,0,0,1.51-.83,2.16,2.16,0,0,0,.28-1.37c-.19-7.27,1.88-14.1,3.93-21,2.14-7.13,4.05-14.34,6-21.51.55-2,1-4,1.6-6,2.1-7.32,4.25-14.62,6.29-21.95a13.5,13.5,0,0,1,2.09-4c8.76,0,17.53-.12,26.31.12.41,0,.81.4,1.44.73-.43,1.52-.78,3-1.29,4.5-4,11.58-7.7,23.25-12,34.71-3.2,8.49-5.89,17.14-8.87,25.7-1.36,3.9-3,7.72-4.26,11.65-2.68,8.15-5.23,16.33-7.8,24.52-.9,2.87-1.71,5.78-2.57,8.65a72.75,72.75,0,0,1-7.75,18A30.68,30.68,0,0,1,628.74,705a32.63,32.63,0,0,1-11.67,1.84,35,35,0,0,0-6.23,0c-3.3.42-6.26-1-9.39-1.41a2.45,2.45,0,0,1-2.05-2.35,11.46,11.46,0,0,1-.1-1.43c0-5.92,0-11.83,0-17.75A13.22,13.22,0,0,1,599.8,681.47Z"/><path class="cls-1" d="M510.54,640.07c4.42,1.24,8.52,2.47,12.66,3.52,3.84,1,7.69,1.94,11.72,1.77,1.89-.08,3.85-.29,5.62.77a1.44,1.44,0,0,0,.91.27c3.82-.82,8-.42,11.29-3.08a8.52,8.52,0,0,0,2.52-9.9,9.08,9.08,0,0,0-4.69-5.17,75.83,75.83,0,0,0-11.19-4.1,49.12,49.12,0,0,1-12.19-5.45C520.48,614.44,515,609,512.93,601c-.94-3.67-2.13-7.38-1.73-11.23.44-4.25,1-8.54,2.75-12.49,3.48-7.83,9.62-12.5,17.91-14.43a75,75,0,0,1,9.25-2c4.1-.42,8.27-.76,12.37.3a10.58,10.58,0,0,0,2.32.5,45.76,45.76,0,0,1,14.84,3.07c1.62.62,3.37.86,5,1.42a3.22,3.22,0,0,1,2.35,3.26q0,9.12-.1,18.23c0,.26-.32.52-.69,1.1-1.22-.29-2.58-.57-3.92-.93-4.29-1.16-8.55-2.37-12.85-3.5a12.29,12.29,0,0,0-2.85-.24,16.32,16.32,0,0,1-4.67-.78,10.32,10.32,0,0,0-12.16,5,5.16,5.16,0,0,0,.06,5,13.08,13.08,0,0,0,5.2,5.43,40.15,40.15,0,0,0,10.69,4c6.2,1.6,11.3,5.07,16.46,8.5,3.25,2.16,5.26,5.49,7.24,8.78a32.86,32.86,0,0,1,4.05,10.65c.51,2.63.24,5.41.32,8.12a25.62,25.62,0,0,1-3,12.37,11.8,11.8,0,0,0-.81,1.73c-1.76,5.46-6,8.39-10.77,10.93-4,2.14-8.27,3-12.61,4.08-6.37,1.58-12.69.66-19,1a11.07,11.07,0,0,1-2.79-.53,12.71,12.71,0,0,0-2.3-.58c-7-.28-13.75-2.12-20.58-3.47-2.69-.53-3.06-1.44-3-4.35,0-5.89.74-11.79-.51-17.66C509.23,641.63,510.15,640.76,510.54,640.07Z"/><path class="cls-1" d="M507.14,498.42c6.08,1.64,11.57,3.23,17.11,4.58,5.72,1.38,11.54,2.48,17.43,1.79,3.38-.4,7-.65,9.44-3.74a8.88,8.88,0,0,0-.28-11.7c-2.22-2.46-5.15-3.68-8.19-4.69-2.56-.85-5.14-1.66-7.7-2.52A61.86,61.86,0,0,1,520,474.71a6.66,6.66,0,0,1-1.88-1.44c-2.54-3.62-5.4-7-7.05-11.25a36.87,36.87,0,0,1-2-16.92c.53-5.91,2.29-11.6,6.24-16.21a22.16,22.16,0,0,1,5.69-4.27,37,37,0,0,1,14.36-4.71c3.62-.46,7.18-1.27,10.85-1,1.41.1,2.8.43,4.2.67a21.3,21.3,0,0,0,2.8.48c6.78.19,13,2.63,19.36,4.62a2.85,2.85,0,0,1,2,2.45c.27,1.64,0,17.25-.4,19.88-1.21-.2-2.45-.31-3.63-.62-4.28-1.15-8.54-2.41-12.83-3.53a15.92,15.92,0,0,0-3.78-.4c-3.2-.05-6.4-.15-9.59,0-6.72.36-6.9,3.32-6.62,8.48.15,2.77,1.77,4.54,4.28,5.82,4.71,2.41,9.8,3.76,14.75,5.48a38.8,38.8,0,0,1,17.36,11.4,28.13,28.13,0,0,1,7.18,18.74c0,2.24.09,4.48,0,6.71-.47,9.08-3.85,16.48-11.69,21.76-6,4.06-12.55,5.64-19.62,6.45a69,69,0,0,1-13.17,0c-5.24-.39-10.33-1.37-15.49-2.13-3.95-.58-7.7-1.82-11.59-2.58-2.42-.47-3-1.1-3-3.51-.09-4,0-8,0-12,0-2.08,0-4.16,0-6.23A15.52,15.52,0,0,1,507.14,498.42Z"/><path class="cls-1" d="M978.62,444.57H963.9c-.44-.7-.87-1.08-.9-1.48-.47-7-.16-14-.18-21.15,5.54-1.73,10.83-.35,16.2.27.75-3.4.37-6.28.44-9.11s0-5.43,0-8.15,0-5.72.06-8.72a10.27,10.27,0,0,1,2.46-.68c7.51-.05,15-.05,22.53-.05a8.52,8.52,0,0,1,1.43.1c1.54.25,2.84,1.67,2.31,3-.86,2.25-.23,4.26,0,6.46a88.7,88.7,0,0,1,.15,10.06c0,1.73.1,3.46.15,5.11a13.41,13.41,0,0,0,7.52,2c2.55-.1,5.11,0,7.67,0,2.22,0,4.41.09,6.61-.71a2.55,2.55,0,0,1,3.61,2.55q.17,8.63,0,17.26c0,2.22-1,3.13-3.35,3.18-5.27.1-10.54.05-15.82.06-1.44,0-2.88-.05-4.31.06-2,.15-3.11,1.05-3.07,3,.11,4.91-.85,9.87.72,14.75a14.48,14.48,0,0,1,.23,4.28c0,9.91,0,19.82,0,29.73a8.66,8.66,0,0,0,2,5.67,7.13,7.13,0,0,0,5.7,2.88c4.84.31,9.46-.74,14.07-1.94.92-.24,1.83-.57,2.74-.83,1.94-.56,3.15.15,3.26,2.15a19.64,19.64,0,0,1-.28,5.69,9.88,9.88,0,0,0-.07,5.12,21.1,21.1,0,0,1,.38,5.68,2.64,2.64,0,0,1-2.54,3c-4.07.64-7.89,2.55-12.12,2.31-6.87,2.22-13.94.76-20.91,1.05a13.34,13.34,0,0,1-5-1.15c-6-2.29-10.66-6-13-12.37-1-2.7-2.38-5.22-2-8.22-1.76-4.13-1-8.49-1.07-12.76-.08-14.07,0-28.13,0-42.2C979.45,448.66,979.81,446.87,978.62,444.57Z"/><path class="cls-1" d="M472.67,667c-3.75.93-15,1-19.24,0a25.91,25.91,0,0,1-.33-2.65c-.64-18.58-.24-241.28.47-246,3-1.11,6.16-.45,9.28-.53a58.15,58.15,0,0,1,9.74.23,20.79,20.79,0,0,1,.58,2.84c.1,1.43,0,2.88,0,4.32q0,117.6,0,235.19C473.19,662.63,473.64,664.9,472.67,667Z"/><path class="cls-1" d="M895.36,566.5c-.71,8-1.39,15.73-2.1,23.8a14.68,14.68,0,0,1-2.29-.39c-3-1.06-5.88-2.63-9-3.19-5.29-1-10.67-2.38-16.06-1.44A24.87,24.87,0,0,0,855,589.53a24.29,24.29,0,0,0-7.21,9.24,4.17,4.17,0,0,0-.71,1.76c.08,3.07-1.27,5.9-1.4,8.9-.15,3.51-.07,7,0,10.55a18,18,0,0,0,.44,2.81,22,22,0,0,1,.69,4.18,14.21,14.21,0,0,0,1.72,6.38c2.5,5.44,7.09,8.37,12.3,10.63,4.21.2,8.33,2.64,12.63.48a.94.94,0,0,1,.47-.09c6.89.1,12.93-2.93,19.17-5.22a4.27,4.27,0,0,1,.8-.06,5.52,5.52,0,0,1,.76,1.92c.07,6.55,0,13.11.06,19.67,0,2-.86,3.11-2.9,3.74-4.25,1.29-8.55,2.34-12.84,3.46-5.25,1.37-10.45.72-15.66,1-6.52.4-12.51-1.42-18.5-3.77a42.55,42.55,0,0,1-12.07-7.43c-7.28-6.17-11.52-13.69-13.92-22.65a33.78,33.78,0,0,1-1-9c0-7.51.12-15-.05-22.54a42.54,42.54,0,0,1,1.89-12.18,34.5,34.5,0,0,1,5.46-11c5.73-8.06,13-13.95,22.52-16.84a87.56,87.56,0,0,1,9.28-1.86c.62-.12,1.36.12,1.9-.12,3.37-1.5,6.92-.93,10.4-1a29,29,0,0,1,4.68.67,5.54,5.54,0,0,0,1.39.31c3.72-.43,7.19,1.1,10.84,1.39a16.37,16.37,0,0,1,8.13,2.48A8.22,8.22,0,0,1,895.36,566.5Z"/><path class="cls-1" d="M743,524.32c-4.74.84-24.5.8-28.36,0a8.24,8.24,0,0,1-.45-1.71c-.09-1.43-.08-2.88-.08-4.31q0-45.33,0-90.66c0-1.89.1-3.78.17-5.86a12.53,12.53,0,0,1,2.49-.55c7,0,14.06,0,21.1,0a9.72,9.72,0,0,1,1.43.09c1.45.22,2.47,1,2.49,2.47.08,7.19.4,14.41-.09,21.57-.27,3.87-1.76,7.7-3.45,11.35-2.14,4.61-4,9.37-5.91,14.08a2.57,2.57,0,0,0-.12,1.84,3,3,0,0,0,1.56,1.61,2.82,2.82,0,0,0,2-.8,4.21,4.21,0,0,0,.92-1.65c1.46-3.52,2.89-7.05,4.36-10.57,1.22-2.93,2.42-5.88,3.74-8.77,2.65-5.8,5.24-11.63,8.11-17.32a29.9,29.9,0,0,1,16.66-14.88c5.15-2,10.38-1.31,15.6-1.17,1.49,0,3,1,4.55,1.63.2,3.89.83,7.64-.61,11.4a11.62,11.62,0,0,0-.3,4.27c.08,4.62.11,9.22-1.79,13.92a8.66,8.66,0,0,1-4.36-.48c-1.69-.81-3.41-.68-5.15-.75-6.93-.25-12.05,3-15.23,8.83a151.73,151.73,0,0,0-9.55,19.81c-1.83,4.91-4.1,9.66-6.07,14.52-1.13,2.8-2.14,5.65-3,8.53a13.21,13.21,0,0,0-.4,3.78c0,5,0,9.91,0,14.87C743.14,520.94,743,522.51,743,524.32Z"/><path class="cls-1" d="M831.58,524.39a4.15,4.15,0,0,1-1.27.43q-12.21.07-24.43.06a10.33,10.33,0,0,1-1.94-.38,10.16,10.16,0,0,1-.52-1.85c-.1-1.11-.08-2.23-.08-3.35v-92a31.16,31.16,0,0,1,.1-3.35,2.74,2.74,0,0,1,2.81-2.69,17.41,17.41,0,0,1,1.91-.06h19.16a17.31,17.31,0,0,1,2.39.1,2.7,2.7,0,0,1,2.44,2.54,28.78,28.78,0,0,1,.12,3.35q0,46.26,0,92.51C832.27,521.24,832.66,522.89,831.58,524.39Z"/><path class="cls-1" d="M835.74,391.1a29.11,29.11,0,0,1-.82,4.57c-1.66,5.23-5.11,8.64-10.59,9.84a46.66,46.66,0,0,1-4.59,1.15c-5.36.63-10.13-1.27-14.32-4.26A12.8,12.8,0,0,1,800,391.73c0-1.12,0-2.24,0-3.36a13.35,13.35,0,0,1,7.2-12.09c3.81-2.15,7.84-3.59,12.28-3.1,6.86.76,12.43,3.4,15.29,10.33C835.65,385.73,835.52,387.86,835.74,391.1Z"/></svg>